<svg width="575" height="60" viewBox="0 0 575 60" fill="none" xmlns="http://www.w3.org/2000/svg">
<path opacity="0.1" d="M0.72 75.536H14.76L38.232 16.064H24.192L0.72 75.536ZM49.095 75.536H63.135L86.607 16.064H72.567L49.095 75.536ZM97.47 75.536H111.51L134.982 16.064H120.942L97.47 75.536ZM145.845 75.536H159.885L183.357 16.064H169.317L145.845 75.536ZM194.22 75.536H208.26L231.732 16.064H217.692L194.22 75.536ZM242.595 75.536H256.635L280.107 16.064H266.067L242.595 75.536ZM290.97 75.536H305.01L328.482 16.064H314.442L290.97 75.536ZM339.345 75.536H353.385L376.857 16.064H362.817L339.345 75.536ZM387.72 75.536H401.76L425.232 16.064H411.192L387.72 75.536ZM436.095 75.536H450.135L473.607 16.064H459.567L436.095 75.536ZM484.47 75.536H498.51L521.982 16.064H507.942L484.47 75.536ZM532.845 75.536H546.885L570.357 16.064H556.317L532.845 75.536ZM581.22 75.536H595.26L618.732 16.064H604.692L581.22 75.536Z" transform="translate(0 -16)" fill="black"/>
</svg>
