<svg width="30" height="16" viewBox="0 0 30 16" fill="none" xmlns="http://www.w3.org/2000/svg">
<path d="M29.3163 1.085C29.5223 0.46 29.3163 0 28.325 0H25.0447C24.2093 0 23.825 0.395 23.619 0.835C23.619 0.835 21.9482 4.49 19.5869 6.86C18.8239 7.545 18.473 7.765 18.0554 7.765C17.8493 7.765 17.5318 7.545 17.5318 6.92V1.085C17.5318 0.335 17.2979 0 16.6074 0H11.4503C10.9268 0 10.6149 0.35 10.6149 0.675C10.6149 1.385 11.7956 1.55 11.9181 3.55V7.89C11.9181 8.84 11.7287 9.015 11.3111 9.015C10.1972 9.015 7.49058 5.345 5.88665 1.145C5.56363 0.33 5.24619 0 4.40524 0H1.12498C0.189353 0 0 0.395 0 0.835C0 1.615 1.11384 5.49 5.18493 10.61C7.89713 14.105 11.7176 16 15.1928 16C17.2812 16 17.5374 15.58 17.5374 14.855C17.5374 11.515 17.3481 11.2 18.3951 11.2C18.8796 11.2 19.715 11.42 21.6642 13.105C23.8919 15.105 24.2594 16 25.5069 16H28.7872C29.7228 16 30.1962 15.58 29.9233 14.75C29.2996 13.005 25.0837 9.415 24.8943 9.175C24.4098 8.615 24.549 8.365 24.8943 7.865C24.8999 7.86 28.9042 2.8 29.3163 1.085Z" fill="#999999"/>
</svg>
